<svg xmlns="http://www.w3.org/2000/svg" xmlns:xlink="http://www.w3.org/1999/xlink" version="1.1" width="256" height="256" viewBox="0 0 256 256" xml:space="preserve">

<defs>
</defs>
<g style="stroke: none; stroke-width: 0; stroke-dasharray: none; stroke-linecap: butt; stroke-linejoin: miter; stroke-miterlimit: 10; fill: none; fill-rule: nonzero; opacity: 1;" transform="translate(1.4065934065934016 1.4065934065934016) scale(2.81 2.81)" >
	<path d="M 60.318 25.352 v 20.123 c 0 5.091 4.127 9.217 9.217 9.217 h 2.886 C 81.578 54.693 89 62.116 89 71.272 v 8.137 c 0 2.977 -2.413 5.391 -5.391 5.391 H 56.975 c -5.685 0 -11.149 -2.207 -15.239 -6.156 L 5.28 43.444 c -5.627 -5.433 -5.677 -14.432 -0.112 -19.928 L 21.015 7.869 C 24.55 4.378 30.22 4.333 33.81 7.768 l 0 0 c -0.299 11.805 10.183 16.892 22.3 14.188 C 58.271 21.474 60.318 23.138 60.318 25.352 z" style="stroke: none; stroke-width: 1; stroke-dasharray: none; stroke-linecap: butt; stroke-linejoin: miter; stroke-miterlimit: 10; fill: rgb(133,158,196); fill-rule: nonzero; opacity: 1;" transform=" matrix(1 0 0 1 0 0) " stroke-linecap="round" />
	<path d="M 4.063 24.748 l 44.678 43.028 c 2.328 2.242 5.435 3.495 8.668 3.495 H 89 c 0 0 0 8.137 0 8.137 c 0 2.977 -2.413 5.391 -5.391 5.391 H 56.975 c -5.685 0 -11.149 -2.207 -15.239 -6.156 L 5.28 43.444 C 0.056 38.4 -0.362 30.28 4.06 24.746 L 4.063 24.748 z" style="stroke: none; stroke-width: 1; stroke-dasharray: none; stroke-linecap: butt; stroke-linejoin: miter; stroke-miterlimit: 10; fill: rgb(208,215,233); fill-rule: nonzero; opacity: 1;" transform=" matrix(1 0 0 1 0 0) " stroke-linecap="round" />
	<path d="M 33.81 7.768 c -0.081 3.211 0.635 5.924 1.964 8.12 l 0.005 -0.003 c -5.451 2.631 -11.8 2.375 -19.764 -3.079 l 0 0 l 4.999 -4.937 C 24.55 4.378 30.22 4.333 33.81 7.768" style="stroke: none; stroke-width: 1; stroke-dasharray: none; stroke-linecap: butt; stroke-linejoin: miter; stroke-miterlimit: 10; fill: rgb(248,210,79); fill-rule: nonzero; opacity: 1;" transform=" matrix(1 0 0 1 0 0) " stroke-linecap="round" />
	<path d="M 20.957 41.018 L 4.063 24.748 l 8.479 -8.513 C 20.641 24.037 23.758 32.271 20.957 41.018 z" style="stroke: none; stroke-width: 1; stroke-dasharray: none; stroke-linecap: butt; stroke-linejoin: miter; stroke-miterlimit: 10; fill: rgb(248,210,79); fill-rule: nonzero; opacity: 1;" transform=" matrix(1 0 0 1 0 0) " stroke-linecap="round" />
	<path d="M 60.4 46.663 l -0.082 -17.505 l -4.082 0.817 c -3.716 0.744 -5.939 4.575 -4.742 8.171 l 1.458 4.379 C 53.986 45.628 57.22 47.425 60.4 46.663 L 60.4 46.663" style="stroke: none; stroke-width: 1; stroke-dasharray: none; stroke-linecap: butt; stroke-linejoin: miter; stroke-miterlimit: 10; fill: rgb(248,210,79); fill-rule: nonzero; opacity: 1;" transform=" matrix(1 0 0 1 0 0) " stroke-linecap="round" />
	<path d="M 83.609 85.799 H 56.976 c -5.977 0 -11.635 -2.285 -15.934 -6.436 l -36.457 -35.2 c -5.574 -5.381 -6.135 -13.997 -1.306 -20.041 c 0.365 -0.458 0.764 -0.901 1.186 -1.317 L 20.312 7.157 c 3.947 -3.897 10.18 -3.948 14.19 -0.112 c 0.204 0.195 0.315 0.466 0.308 0.748 c -0.074 2.912 0.538 5.461 1.82 7.576 c 3.261 5.385 10.645 7.533 19.262 5.611 c 1.326 -0.294 2.687 0.025 3.745 0.873 c 1.068 0.856 1.68 2.132 1.68 3.499 v 20.123 c 0 4.531 3.686 8.218 8.218 8.218 h 2.886 C 82.115 53.693 90 61.578 90 71.272 v 8.137 C 90 82.932 87.133 85.799 83.609 85.799 z M 27.464 6.205 c -2.073 0 -4.144 0.793 -5.747 2.375 L 5.871 24.227 c -0.366 0.362 -0.712 0.746 -1.029 1.143 C 0.66 30.603 1.147 38.064 5.974 42.725 l 36.457 35.199 c 3.924 3.789 9.089 5.875 14.544 5.875 h 26.634 c 2.421 0 4.391 -1.969 4.391 -4.39 v -8.137 c 0 -8.59 -6.989 -15.579 -15.579 -15.579 h -2.886 c -5.634 0 -10.218 -4.584 -10.218 -10.217 V 25.353 c 0 -0.758 -0.34 -1.465 -0.931 -1.939 c -0.584 -0.467 -1.335 -0.643 -2.059 -0.481 c -9.483 2.118 -17.687 -0.384 -21.408 -6.526 c -1.413 -2.333 -2.124 -5.091 -2.115 -8.202 C 31.263 6.87 29.362 6.205 27.464 6.205 z" style="stroke: none; stroke-width: 1; stroke-dasharray: none; stroke-linecap: butt; stroke-linejoin: miter; stroke-miterlimit: 10; fill: rgb(0,0,0); fill-rule: nonzero; opacity: 1;" transform=" matrix(1 0 0 1 0 0) " stroke-linecap="round" />
	<path d="M 28.875 18.511 c -4.224 0 -8.667 -1.622 -13.425 -4.881 c -0.455 -0.312 -0.572 -0.934 -0.26 -1.39 c 0.312 -0.456 0.934 -0.571 1.39 -0.26 c 6.951 4.762 13.088 5.744 18.765 3.004 c 0.496 -0.24 1.094 -0.032 1.335 0.466 c 0.24 0.497 0.032 1.095 -0.466 1.335 C 33.832 17.934 31.393 18.511 28.875 18.511 z" style="stroke: none; stroke-width: 1; stroke-dasharray: none; stroke-linecap: butt; stroke-linejoin: miter; stroke-miterlimit: 10; fill: rgb(0,0,0); fill-rule: nonzero; opacity: 1;" transform=" matrix(1 0 0 1 0 0) " stroke-linecap="round" />
	<path d="M 89 72.272 H 57.409 c -3.509 0 -6.834 -1.34 -9.36 -3.774 L 20.281 41.755 c -0.012 -0.01 -0.022 -0.021 -0.034 -0.032 L 3.37 25.468 c -0.193 -0.186 -0.303 -0.442 -0.306 -0.71 s 0.102 -0.526 0.291 -0.716 l 8.478 -8.514 c 0.385 -0.388 1.008 -0.392 1.402 -0.015 c 8.395 8.087 11.373 16.565 8.857 25.209 l 27.342 26.333 c 2.154 2.074 4.985 3.216 7.974 3.216 H 89 c 0.553 0 1 0.447 1 1 S 89.553 72.272 89 72.272 z M 5.489 24.734 l 14.956 14.404 c 1.754 -7.364 -0.84 -14.419 -7.896 -21.494 L 5.489 24.734 z" style="stroke: none; stroke-width: 1; stroke-dasharray: none; stroke-linecap: butt; stroke-linejoin: miter; stroke-miterlimit: 10; fill: rgb(0,0,0); fill-rule: nonzero; opacity: 1;" transform=" matrix(1 0 0 1 0 0) " stroke-linecap="round" />
	<path d="M 26.977 47.815 c -0.354 0 -0.697 -0.188 -0.879 -0.521 c -0.265 -0.484 -0.085 -1.091 0.399 -1.356 c 6.172 -3.365 11.238 -4.834 18.067 -5.24 c 0.538 -0.04 1.024 0.387 1.057 0.939 c 0.033 0.551 -0.387 1.024 -0.939 1.057 c -6.507 0.387 -11.338 1.789 -17.228 4.999 C 27.303 47.776 27.139 47.815 26.977 47.815 z" style="stroke: none; stroke-width: 1; stroke-dasharray: none; stroke-linecap: butt; stroke-linejoin: miter; stroke-miterlimit: 10; fill: rgb(0,0,0); fill-rule: nonzero; opacity: 1;" transform=" matrix(1 0 0 1 0 0) " stroke-linecap="round" />
	<path d="M 33.53 54.125 c -0.354 0 -0.698 -0.188 -0.879 -0.521 c -0.265 -0.485 -0.085 -1.092 0.399 -1.356 c 6.17 -3.362 11.233 -4.83 18.059 -5.235 c 0.57 -0.021 1.025 0.388 1.057 0.938 c 0.033 0.552 -0.388 1.025 -0.938 1.057 c -6.505 0.387 -11.334 1.787 -17.221 4.995 C 33.855 54.086 33.691 54.125 33.53 54.125 z" style="stroke: none; stroke-width: 1; stroke-dasharray: none; stroke-linecap: butt; stroke-linejoin: miter; stroke-miterlimit: 10; fill: rgb(0,0,0); fill-rule: nonzero; opacity: 1;" transform=" matrix(1 0 0 1 0 0) " stroke-linecap="round" />
	<path d="M 40.069 60.383 c -0.355 0 -0.699 -0.189 -0.88 -0.523 c -0.264 -0.485 -0.083 -1.091 0.402 -1.355 c 6.124 -3.322 11.158 -4.774 17.954 -5.178 c 0.576 -0.029 1.025 0.388 1.057 0.938 c 0.033 0.552 -0.388 1.025 -0.938 1.057 c -6.477 0.386 -11.277 1.771 -17.119 4.94 C 40.393 60.344 40.23 60.383 40.069 60.383 z" style="stroke: none; stroke-width: 1; stroke-dasharray: none; stroke-linecap: butt; stroke-linejoin: miter; stroke-miterlimit: 10; fill: rgb(0,0,0); fill-rule: nonzero; opacity: 1;" transform=" matrix(1 0 0 1 0 0) " stroke-linecap="round" />
	<path d="M 38.981 85.799 H 1.027 c -0.552 0 -1 -0.447 -1 -1 s 0.448 -1 1 -1 h 37.954 c 0.552 0 1 0.447 1 1 S 39.533 85.799 38.981 85.799 z" style="stroke: none; stroke-width: 1; stroke-dasharray: none; stroke-linecap: butt; stroke-linejoin: miter; stroke-miterlimit: 10; fill: rgb(0,0,0); fill-rule: nonzero; opacity: 1;" transform=" matrix(1 0 0 1 0 0) " stroke-linecap="round" />
	<path d="M 23.532 71.803 H 1.027 c -0.552 0 -1 -0.447 -1 -1 s 0.448 -1 1 -1 h 22.505 c 0.552 0 1 0.447 1 1 S 24.084 71.803 23.532 71.803 z" style="stroke: none; stroke-width: 1; stroke-dasharray: none; stroke-linecap: butt; stroke-linejoin: miter; stroke-miterlimit: 10; fill: rgb(0,0,0); fill-rule: nonzero; opacity: 1;" transform=" matrix(1 0 0 1 0 0) " stroke-linecap="round" />
	<path d="M 9.124 57.807 H 1.027 c -0.552 0 -1 -0.447 -1 -1 c 0 -0.553 0.448 -1 1 -1 h 8.098 c 0.552 0 1 0.447 1 1 C 10.124 57.36 9.676 57.807 9.124 57.807 z" style="stroke: none; stroke-width: 1; stroke-dasharray: none; stroke-linecap: butt; stroke-linejoin: miter; stroke-miterlimit: 10; fill: rgb(0,0,0); fill-rule: nonzero; opacity: 1;" transform=" matrix(1 0 0 1 0 0) " stroke-linecap="round" />
	<path d="M 58.899 47.841 c -3.079 0 -5.877 -1.944 -6.895 -5 l -1.459 -4.38 c -0.661 -1.986 -0.437 -4.163 0.613 -5.973 c 1.05 -1.81 2.829 -3.083 4.881 -3.494 l 4.082 -0.818 c 0.292 -0.059 0.597 0.016 0.828 0.206 c 0.231 0.189 0.367 0.471 0.368 0.77 L 61.4 46.658 c 0.002 0.465 -0.315 0.869 -0.766 0.977 C 60.052 47.775 59.47 47.841 58.899 47.841 z M 59.324 30.377 l -2.892 0.579 c -1.49 0.298 -2.781 1.223 -3.545 2.537 c -0.762 1.314 -0.925 2.895 -0.444 4.337 l 1.459 4.38 c 0.792 2.38 3.066 3.828 5.495 3.608 L 59.324 30.377 z" style="stroke: none; stroke-width: 1; stroke-dasharray: none; stroke-linecap: butt; stroke-linejoin: miter; stroke-miterlimit: 10; fill: rgb(0,0,0); fill-rule: nonzero; opacity: 1;" transform=" matrix(1 0 0 1 0 0) " stroke-linecap="round" />
</g>
</svg>